<?xml version="1.0" encoding="utf-8"?>
<!-- Generator: Adobe Illustrator 26.3.1, SVG Export Plug-In . SVG Version: 6.00 Build 0)  -->
<svg version="1.1" id="Layer_1" xmlns="http://www.w3.org/2000/svg" xmlns:xlink="http://www.w3.org/1999/xlink" x="0px" y="0px"
	 viewBox="0 0 900 500" style="enable-background:new 0 0 900 500;" xml:space="preserve">
<style type="text/css">
	.st0{fill:#595A5C;}
	.st1{clip-path:url(#SVGID_00000034804607181285590120000006766861242307380662_);}
	.st2{opacity:0.6;fill:#29ABE3;}
	.st3{opacity:0.6;fill:#E32285;}
	.st4{opacity:0.6;fill:#E52629;}
	.st5{opacity:0.6;fill:#FAEA27;}
</style>
<g>
	<path class="st0" d="M338.37,298.46h-44.2c-1.24,0-2.13-0.89-2.13-2.13V179.81c0-1.06,0.89-2.13,2.13-2.13h45.8
		c17.22,0,31.6,6.39,42.78,17.56c10.83,11,17.4,26.07,17.4,42.74C400.14,272.75,372.09,298.46,338.37,298.46z M364.81,207.12
		c-9.94-9.22-23.43-10.64-33.37-10.64h-17.93v82.47h23.43c23.08,0,41.18-18.27,41.18-40.97
		C378.13,224.86,372.98,214.93,364.81,207.12z"/>
	<path class="st0" d="M456.23,302.54c-7.63,23.77-20.06,35.47-41.71,36.71c-1.06,0.18-1.95-0.89-1.95-1.95v-15.79
		c0-1.24,0.89-2.13,1.95-2.13c11.36,1.42,19.35-9.58,22.01-20.04c-12.07-30.68-20.77-52.68-31.24-77.68
		c-0.36-1.06-0.53-2.84,1.24-2.84h19.17c1.42,0,2.31,0.18,2.66,1.42c0,0,14.38,42.21,18.11,52.85l0.18-0.71
		c2.49-10.29,3.19-13.3,4.44-18.8c1.42-5.5,3.37-13.3,8.88-33.34c0.36-1.06,0.71-1.42,2.31-1.42h18.64c1.77,0,1.6,1.6,1.24,2.84
		L456.23,302.54z"/>
	<path class="st0" d="M562.91,298.46h-15.98c-1.07,0-1.95-0.89-1.95-1.95v-41.33c0-11.35-1.95-19.86-15.09-19.86
		c-9.23,0-13.67,7.98-14.38,11.71c-0.71,3.72-1.07,8.16-1.07,12.59v36.89c0,1.06-0.89,1.95-1.95,1.95h-16.15
		c-1.07,0-1.95-0.89-1.95-1.95v-75.73c0-1.06,0.89-1.95,1.95-1.95h16.15c1.06,0,1.95,0.89,1.95,1.95v1.95
		c2.84-2.31,11.01-5.5,18.64-5.5c21.12,0,31.95,14.01,31.95,33.17v46.11C565.04,297.58,564.16,298.46,562.91,298.46z"/>
	<path class="st0" d="M649.54,298.46h-16.15c-1.24,0-2.13-0.89-2.13-1.95v-2.13c-4.26,4.08-11.89,5.68-18.28,5.68
		c-12.42,0-26.63-8.69-26.63-25.54c0-7.98,4.26-15.96,15.26-21.46c7.46-3.55,21.12-5.32,29.64-6.38c0.18-3.19-1.06-6.92-3.19-9.22
		c-1.95-2.13-4.97-3.55-8.52-3.55c-8.52,0-12.96,1.95-19.7,6.56c-0.89,0.71-2.13,0.35-2.66-0.53l-7.45-10.46
		c-0.53-0.89-0.36-2.13,0.71-2.84c7.63-5.14,14.91-9.4,29.11-9.4c9.76,0,31.77,3.9,31.77,30.33v48.95
		C651.31,297.58,650.6,298.46,649.54,298.46z M631.25,262.99c-5.15,0.71-14.91,1.95-19.52,4.61c-1.95,0.89-5.68,3.19-5.15,7.98
		c0.36,5.32,5.5,7.8,10.12,7.8c5.15,0,10.83-1.77,14.55-5.32V262.99z"/>
	<path class="st0" d="M793.85,298.46H777.7c-1.07,0-1.95-0.89-1.95-1.95v-41.33c0-10.64-1.42-19.86-14.2-19.86
		c-8.88,0-12.96,7.98-13.85,11.35c-0.89,3.55-0.89,6.03-0.89,11.35v38.49c0,1.06-0.89,1.95-1.95,1.95h-16.15
		c-1.06,0-1.95-0.89-1.95-1.95v-41.33c0-11.35-1.42-19.86-14.2-19.86c-8.7,0-12.96,8.16-13.67,11.71
		c-0.71,3.72-1.07,8.16-1.07,12.59v36.89c0,1.06-0.89,1.95-1.95,1.95h-16.15c-1.07,0-1.95-0.89-1.95-1.95v-75.73
		c0-1.06,0.89-1.95,1.95-1.95h16.15c1.06,0,1.95,0.89,1.95,1.95v1.95c2.66-2.31,10.47-5.5,17.57-5.5c10.12,0,18.28,3.02,23.43,9.05
		c4.62-4.08,12.96-9.05,25.56-9.05c20.24,0,31.42,13.12,31.42,33.17v46.11C795.8,297.58,794.91,298.46,793.85,298.46z"/>
	<path class="st0" d="M857.58,300.06c-22.9,0-42.42-17.74-42.42-41.33s19.52-41.5,42.42-41.5S900,235.15,900,258.73
		S880.47,300.06,857.58,300.06z M857.58,234.97c-12.25,0-22.37,10.82-22.37,23.77s10.12,23.59,22.37,23.59
		c12.43,0,22.37-10.64,22.37-23.59S870,234.97,857.58,234.97z"/>
</g>
<g>
	<defs>
		<path id="SVGID_1_" d="M227.28,250c-0.19-3.8-0.3-7.59-0.66-11.37c5.93-2.83,11.78-6.05,17.54-9.62
			c-1.48-9.2-4.31-18.17-7.77-26.83c-6.84,0.11-13.54,0.59-20.09,1.44c-1.55-3.5-3.68-6.67-5.64-9.94c-1.93-3.29-4.42-6.2-6.66-9.26
			c3.53-5.65,6.62-11.43,9.54-17.58c-6.2-6.93-13.43-12.89-21-18.27c-5.64,3.7-11.08,7.79-16.13,12.02
			c-3.19-2.09-6.66-3.69-10.1-5.33c-3.39-1.78-7.09-2.82-10.65-4.2c-0.06-6.75-0.6-13.21-1.5-19.94c-9-2.5-18.33-3.64-27.58-3.95
			c-2.73,6.08-5.07,12.37-7.03,18.78c-3.79,0.17-7.6,0.29-11.36,1c-3.78,0.5-7.53,1.16-11.21,2.23
			c-3.65-5.47-7.73-11.03-12.07-16.09c-8.84,3.02-17.46,6.72-25.38,11.64c1.07,6.73,2.4,13.11,4.23,19.56
			c-3.02,2.32-6.25,4.4-9,7.01c-2.82,2.56-5.71,5.05-8.19,7.95c-6.04-2.64-12.39-5.04-18.86-7.03c-5.75,7.3-11,15.05-15.02,23.47
			c4.51,5.06,9.16,9.79,14.08,14.19c-1.29,3.59-2.78,7.12-3.79,10.8c-0.88,3.68-2.13,7.33-2.57,11.12
			c-6.51,1.05-13.06,2.49-19.63,4.32c-1.02,9.24-1.02,18.53,0,27.78c6.57,1.82,13.12,3.26,19.63,4.31c0.44,3.79,1.7,7.43,2.57,11.13
			c1.01,3.68,2.5,7.21,3.79,10.79c-4.91,4.4-9.56,9.12-14.08,14.18c4.03,8.42,9.28,16.17,15.02,23.47
			c6.48-1.99,12.82-4.39,18.86-7.03c2.48,2.88,5.37,5.38,8.19,7.94c2.77,2.63,5.99,4.69,9,7.02c-1.82,6.44-3.16,12.83-4.23,19.55
			c7.92,4.93,16.54,8.64,25.38,11.66c4.35-5.07,8.43-10.61,12.07-16.08c3.68,1.06,7.44,1.72,11.21,2.22c3.76,0.69,7.57,0.82,11.37,1
			c1.95,6.39,4.28,12.7,7.01,18.77c9.26-0.32,18.58-1.45,27.58-3.96c0.9-6.74,1.46-13.2,1.51-19.95c3.55-1.38,7.24-2.42,10.64-4.19
			c3.44-1.64,6.91-3.24,10.11-5.33c5.05,4.22,10.5,8.33,16.12,12.03c7.58-5.39,14.8-11.35,21-18.27
			c-2.92-6.15-6.01-11.93-9.54-17.57c2.25-3.07,4.73-5.98,6.66-9.27c1.96-3.27,4.09-6.43,5.64-9.94c6.55,0.85,13.25,1.32,20.09,1.44
			c3.46-8.66,6.29-17.62,7.77-26.83c-5.76-3.58-11.61-6.8-17.54-9.61C226.98,257.6,227.09,253.79,227.28,250z M147.9,304.52
			c-10.31,4.69-22.13,6.56-33.46,4.77c-11.31-1.51-22.06-6.52-30.71-14.01c-8.67-7.47-15.08-17.47-18.3-28.39
			c-3.21-10.9-3.21-22.89,0-33.8c3.22-10.91,9.62-20.91,18.3-28.39c8.66-7.48,19.39-12.49,30.71-13.99
			c11.33-1.8,23.14,0.09,33.46,4.77c10.4,4.69,19.38,12.53,25.57,22.14c6.27,9.6,9.41,20.89,9.58,32.39
			c-0.17,11.48-3.31,22.77-9.58,32.38C167.28,291.99,158.29,299.83,147.9,304.52z"/>
	</defs>
	<clipPath id="SVGID_00000164473219241793664080000014332015124260554164_">
		<use xlink:href="#SVGID_1_"  style="overflow:visible;"/>
	</clipPath>
	<g style="clip-path:url(#SVGID_00000164473219241793664080000014332015124260554164_);">
		<ellipse class="st2" cx="189.21" cy="201.52" rx="115.87" ry="115.78"/>
		<ellipse class="st3" cx="115.33" cy="199.49" rx="115.87" ry="115.78"/>
		<ellipse class="st4" cx="39.94" cy="309.71" rx="121.95" ry="121.85"/>
		<ellipse class="st5" cx="150.75" cy="336.26" rx="121.95" ry="121.85"/>
	</g>
</g>
</svg>
